#!OML:ASF F:\VICON\USERDATA\INSTALL\rory3\rory3.ASF
:FULLY-SPECIFIED
:DEGREES
2464
root 0.188821 14.8934 -2.72485 -3.64008 2.50214 -2.18984
lowerback 27.6605 0.70679 -2.60258
upperback 13.0957 0.288093 -0.519932
thorax -0.653612 0.0503879 0.841651
lowerneck -3.80217 -9.35251 -16.5197
upperneck -5.98043 -11.7261 23.131
head 1.45483 -5.80786 9.42791
rclavicle -1.11319e-014 -1.11319e-014
rhumerus 35.3817 2.20246 -75.1694
rradius 135.111
rwrist -29.0247
rhand 24.6124 2.45271
rfingers 7.12502
rthumb 48.8051 -19.3756
lclavicle -1.11319e-014 -1.11319e-014
lhumerus 23.3886 -19.1858 70.8732
lradius 113.857
lwrist 14.5618
lhand -6.45815 29.0226
lfingers 7.12502
lthumb 19.3919 58.0756
rfemur -27.2906 5.72787 17.7947
rtibia 51.5403
rfoot -16.0878 -10.7789
rtoes -18.6722
lfemur -28.297 -7.16228 -13.1075
ltibia 50.2178
lfoot -14.1167 1.35082
ltoes -16.8796
2465
root 0.190728 14.8923 -2.72606 -3.64966 2.43599 -2.22103
lowerback 27.6746 0.695907 -2.55038
upperback 13.0891 0.285008 -0.522552
thorax -0.667704 0.0511521 0.809807
lowerneck -3.66952 -9.33936 -16.5119
upperneck -6.03718 -11.7168 23.0927
head 1.41065 -5.81214 9.4225
rclavicle 1.59028e-015 -3.97569e-015
rhumerus 36.073 2.6649 -74.9906
rradius 135.394
rwrist -29.9159
rhand 24.2135 2.11603
rfingers 7.12502
rthumb 48.4381 -19.8898
lclavicle 1.59028e-015 -3.97569e-015
lhumerus 23.3853 -19.1716 70.8119
lradius 113.853
lwrist 14.6256
lhand -6.41918 29.0425
lfingers 7.12502
lthumb 19.4294 58.0917
rfemur -27.3124 5.72929 17.8266
rtibia 51.5807
rfoot -16.1178 -10.7012
rtoes -18.5607
lfemur -28.2739 -7.15576 -13.0718
ltibia 50.2203
lfoot -14.1043 1.4049
ltoes -17.0252
2466
root 0.19399 14.8906 -2.72957 -3.61249 2.3396 -2.01888
lowerback 27.6842 0.755954 -2.68367
upperback 13.0857 0.32526 -0.597954
thorax -0.676123 0.0679902 0.792733
lowerneck -3.67327 -9.38032 -16.5244
upperneck -5.97886 -11.7817 23.1388
head 1.44543 -5.84318 9.43161
rclavicle 1.59028e-015 -5.56597e-015
rhumerus 36.7009 2.94564 -74.8178
rradius 135.88
rwrist -31.2359
rhand 23.9206 1.38803
rfingers 7.12502
rthumb 48.1683 -20.7459
lclavicle 1.59028e-015 -5.56597e-015
lhumerus 23.499 -19.2262 70.7149
lradius 113.84
lwrist 14.6813
lhand -6.41153 28.9965
lfingers 7.12502
lthumb 19.4367 58.0451
rfemur -27.4266 5.71975 17.594
rtibia 51.6689
rfoot -16.1234 -10.6169
rtoes -18.719
lfemur -28.2687 -7.11292 -13.3046
ltibia 50.2044
lfoot -14.141 1.45845
ltoes -16.8378
2467
root 0.196158 14.886 -2.73403 -3.59996 2.21473 -1.82185
lowerback 27.7503 0.829694 -2.8468
upperback 13.0309 0.371726 -0.679413
thorax -0.768538 0.0879756 0.784008
lowerneck -3.49567 -9.36356 -16.4698
upperneck -5.9736 -11.7833 23.1283
head 1.4126 -5.85481 9.42727
rclavicle -8.74653e-015 -7.95139e-015
rhumerus 37.184 2.8931 -74.5524
rradius 136.469
rwrist -32.9706
rhand 23.8035 0.919526
rfingers 7.12502
rthumb 48.0604 -21.2651
lclavicle -8.74653e-015 -7.95139e-015
lhumerus 23.5195 -19.2842 70.632
lradius 113.811
lwrist 14.6988
lhand -6.41 28.9412
lfingers 7.12502
lthumb 19.4382 57.9896
rfemur -27.5227 5.76427 17.3749
rtibia 51.7846
rfoot -16.1723 -10.5036
rtoes -19.1852
lfemur -28.2545 -7.07473 -13.5191
ltibia 50.2018
lfoot -14.204 1.55398
ltoes -17.0429
2468
root 0.196046 14.8816 -2.737 -3.56286 2.102 -1.62682
lowerback 27.8017 0.91292 -3.04513
upperback 12.9799 0.422909 -0.742041
thorax -0.849925 0.108021 0.814501
lowerneck -3.37399 -9.35892 -16.3282
upperneck -6.0068 -11.79 23.0185
head 1.36541 -5.86742 9.3726
rclavicle 3.97569e-016 -1.51076e-014
rhumerus 37.6136 3.0485 -74.1696
rradius 136.996
rwrist -34.504
rhand 23.7508 0.984914
rfingers 7.12502
rthumb 48.0118 -21.2224
lclavicle 3.97569e-016 -1.51076e-014
lhumerus 23.5814 -19.3455 70.5584
lradius 113.783
lwrist 14.6799
lhand -6.55361 28.9906
lfingers 7.12502
lthumb 19.3001 58.0529
rfemur -27.6173 5.84958 17.1599
rtibia 51.9072
rfoot -16.2206 -10.3774
rtoes -18.9827
lfemur -28.274 -7.03931 -13.7183
ltibia 50.2026
lfoot -14.2078 1.64935
ltoes -17.2337
2469
root 0.194937 14.8802 -2.74015 -3.50403 2.01319 -1.56207
lowerback 27.8591 0.978152 -3.12779
upperback 12.9162 0.479959 -0.760876
thorax -0.949663 0.134886 0.824944
lowerneck -3.27644 -9.35389 -16.167
upperneck -6.07801 -11.788 22.9082
head 1.30869 -5.87554 9.3152
rclavicle -5.56597e-015 -2.06736e-014
rhumerus 37.8366 3.46709 -73.7442
rradius 137.537
rwrist -35.6578
rhand 23.5055 0.934075
rfingers 7.12502
rthumb 47.7856 -21.3782
lclavicle -5.56597e-015 -2.06736e-014
lhumerus 23.6243 -19.4295 70.5446
lradius 113.804
lwrist 14.5083
lhand -6.56897 29.1096
lfingers 7.12502
lthumb 19.2853 58.1733
rfemur -27.7189 5.90667 17.0909
rtibia 51.994
rfoot -16.1783 -10.1967
rtoes -17.5826
lfemur -28.3342 -6.97107 -13.7701
ltibia 50.2158
lfoot -14.1871 1.67782
ltoes -16.99
2470
root 0.194817 14.8813 -2.74233 -3.46215 1.94518 -1.65278
lowerback 27.8921 0.989712 -3.03603
upperback 12.8802 0.513725 -0.752458
thorax -1.00694 0.155919 0.772152
lowerneck -3.29031 -9.34354 -16.1255
upperneck -6.0338 -11.7788 22.904
head 1.31867 -5.86968 9.30601
rclavicle -7.95139e-016 -9.54166e-015
rhumerus 37.95 3.88082 -73.4024
rradius 138.127
rwrist -36.49
rhand 23.5002 0.545614
rfingers 7.12502
rthumb 47.7808 -21.7689
lclavicle -7.95139e-016 -9.54166e-015
lhumerus 23.6552 -19.4815 70.5645
lradius 113.826
lwrist 14.2678
lhand -6.3426 29.084
lfingers 7.12502
lthumb 19.503 58.1258
rfemur -27.8168 5.9511 17.1986
rtibia 52.022
rfoot -16.1064 -10.2895
rtoes -17.681
lfemur -28.3844 -6.91702 -13.6543
ltibia 50.2415
lfoot -14.2061 1.67957
ltoes -17.0514
2471
root 0.195875 14.8834 -2.74364 -3.40241 1.91161 -1.6815
lowerback 27.9189 0.995073 -2.99486
upperback 12.8217 0.527379 -0.752265
thorax -1.08592 0.1657 0.744745
lowerneck -3.35073 -9.32719 -16.1871
upperneck -5.88212 -11.7683 22.9465
head 1.37697 -5.85612 9.32521
rclavicle 6.75868e-015 -4.77083e-015
rhumerus 38.0347 4.32306 -73.0893
rradius 138.634
rwrist -36.6726
rhand 23.6791 0.123569
rfingers 7.12502
rthumb 47.9457 -22.1145
lclavicle 6.75868e-015 -4.77083e-015
lhumerus 23.64 -19.5304 70.652
lradius 113.846
lwrist 14.1696
lhand -5.9363 28.9421
lfingers 7.12502
lthumb 19.8936 57.9439
rfemur -27.946 5.96962 17.2229
rtibia 52.0189
rfoot -16.1823 -10.4128
rtoes -18.5618
lfemur -28.4511 -6.90841 -13.614
ltibia 50.2587
lfoot -14.232 1.7212
ltoes -16.9966
2472
root 0.19517 14.8789 -2.74347 -3.32216 1.91498 -1.61805
lowerback 27.8879 1.02557 -3.06414
upperback 12.7888 0.54987 -0.752281
thorax -1.10947 0.174603 0.778138
lowerneck -3.49306 -9.30664 -16.3147
upperneck -5.68485 -11.7467 23.03
head 1.46748 -5.83026 9.3656
rclavicle 3.97569e-015 -4.77083e-015
rhumerus 38.046 4.52827 -72.7826
rradius 138.835
rwrist -35.7256
rhand 23.7558 0.0426574
rfingers 7.12502
rthumb 48.0164 -22.1625
lclavicle 3.97569e-015 -4.77083e-015
lhumerus 23.6197 -19.5683 70.8002
lradius 113.909
lwrist 14.2171
lhand -5.94392 28.9588
lfingers 7.12502
lthumb 19.8863 57.9614
rfemur -28.0191 5.95811 17.1498
rtibia 52.0096
rfoot -16.2798 -10.4551
rtoes -19.0694
lfemur -28.5491 -6.90733 -13.6643
ltibia 50.2746
lfoot -14.2003 1.69377
ltoes -16.9209
2473
root 0.19384 14.8752 -2.74293 -3.26425 1.92596 -1.48968
lowerback 27.8371 1.07257 -3.2011
upperback 12.774 0.576826 -0.791223
thorax -1.10315 0.183908 0.806655
lowerneck -3.61222 -9.26267 -16.3003
upperneck -5.53095 -11.6922 23.0378
head 1.51988 -5.7922 9.36238
rclavicle -1.47101e-014 -2.38542e-015
rhumerus 37.7013 4.42588 -72.6813
rradius 138.686
rwrist -33.7698
rhand 23.9259 0.555262
rfingers 7.12502
rthumb 48.1732 -21.5763
lclavicle -1.47101e-014 -2.38542e-015
lhumerus 23.6229 -19.6122 70.8963
lradius 113.995
lwrist 14.2688
lhand -6.14344 29.1848
lfingers 7.12502
lthumb 19.6945 58.2072
rfemur -28.0392 5.95065 17.0078
rtibia 52.0094
rfoot -16.26 -10.4463
rtoes -19.2089
lfemur -28.6103 -6.90169 -13.7949
ltibia 50.2665
lfoot -14.1648 1.74461
ltoes -17.3527
2474
root 0.19311 14.8778 -2.74227 -3.24394 1.93272 -1.45653
lowerback 27.8206 1.09699 -3.26424
upperback 12.7623 0.592425 -0.807401
thorax -1.109 0.189817 0.82079
lowerneck -3.72679 -9.19747 -16.2166
upperneck -5.37735 -11.6096 22.9573
head 1.55398 -5.74075 9.32119
rclavicle -5.1684e-015 -1.03368e-014
rhumerus 37.1263 4.20922 -72.8635
rradius 138.31
rwrist -31.7813
rhand 24.5543 1.53953
rfingers 7.12502
rthumb 48.7517 -20.3148
lclavicle -5.1684e-015 -1.03368e-014
lhumerus 23.5979 -19.6219 70.9888
lradius 114.108
lwrist 14.3487
lhand -6.05848 29.2766
lfingers 7.12502
lthumb 19.7761 58.2905
rfemur -28.0495 5.97417 16.9717
rtibia 51.9985
rfoot -16.1886 -10.4783
rtoes -19.3774
lfemur -28.6089 -6.88022 -13.8289
ltibia 50.2245
lfoot -14.1725 1.75615
ltoes -17.4581
2475
root 0.192811 14.88 -2.74051 -3.25039 1.98349 -1.4227
lowerback 27.8257 1.11029 -3.29166
upperback 12.7616 0.601818 -0.838828
thorax -1.11206 0.194861 0.799493
lowerneck -3.78915 -9.12509 -16.0873
upperneck -5.28869 -11.5154 22.8441
head 1.55328 -5.68875 9.26639
rclavicle 5.96354e-015 -3.18055e-015
rhumerus 36.4602 3.83168 -73.2624
rradius 137.887
rwrist -30.6971
rhand 25.6913 2.5881
rfingers 7.12502
rthumb 49.7951 -18.7416
lclavicle 5.96354e-015 -3.18055e-015
lhumerus 23.6137 -19.6101 71.1027
lradius 114.295
lwrist 14.2167
lhand -5.78774 29.5378
lfingers 7.12502
lthumb 20.0364 58.5248
rfemur -28.004 5.93227 16.936
rtibia 51.9637
rfoot -16.2067 -10.516
rtoes -19.6645
lfemur -28.5722 -6.9008 -13.8715
ltibia 50.1649
lfoot -14.1661 1.66761
ltoes -16.9834
2476
root 0.191962 14.8862 -2.7383 -3.23733 2.10295 -1.45179
lowerback 27.7966 1.10719 -3.23163
upperback 12.8068 0.616013 -0.848975
thorax -1.04817 0.204331 0.750653
lowerneck -3.98981 -9.08176 -15.9609
upperneck -5.2128 -11.4434 22.7675
head 1.58048 -5.64065 9.21576
rclavicle -3.18055e-015 2.38542e-015
rhumerus 35.7619 3.32945 -73.5848
rradius 137.449
rwrist -30.6609
rhand 26.935 3.17399
rfingers 7.12502
rthumb 50.9315 -17.5456
lclavicle -3.18055e-015 2.38542e-015
lhumerus 23.7763 -19.6106 71.2095
lradius 114.543
lwrist 13.742
lhand -5.36779 30.3287
lfingers 7.12502
lthumb 20.44 59.2729
rfemur -28.0023 5.84596 16.9573
rtibia 51.9138
rfoot -16.1723 -10.5291
rtoes -19.3151
lfemur -28.5556 -6.96339 -13.8518
ltibia 50.0955
lfoot -14.0933 1.60399
ltoes -16.6381
2477
root 0.1906 14.8939 -2.736 -3.22598 2.23686 -1.64841
lowerback 27.7438 1.0853 -2.99414
upperback 12.8912 0.652585 -0.816802
thorax -0.930573 0.230124 0.641004
lowerneck -4.31771 -9.05971 -15.8001
upperneck -5.1209 -11.3896 22.6964
head 1.63592 -5.59463 9.15319
rclavicle 1.11319e-014 1.90833e-014
rhumerus 34.9837 2.93713 -73.7675
rradius 137.042
rwrist -30.8169
rhand 27.8036 3.26071
rfingers 7.12502
rthumb 51.7219 -17.0087
lclavicle 1.11319e-014 1.90833e-014
lhumerus 24.035 -19.7085 71.2147
lradius 114.743
lwrist 13.3289
lhand -5.18845 30.7758
lfingers 7.12502
lthumb 20.6123 59.7014
rfemur -27.9919 5.81667 17.1674
rtibia 51.85
rfoot -16.148 -10.6017
rtoes -18.6544
lfemur -28.5768 -6.99974 -13.6358
ltibia 50.0556
lfoot -14.0427 1.50238
ltoes -16.3544
2478
root 0.188499 14.8959 -2.73303 -3.21992 2.38324 -1.78539
lowerback 27.6911 1.0321 -2.86069
upperback 12.9417 0.623173 -0.790748
thorax -0.848906 0.219715 0.602033
lowerneck -4.42516 -8.95518 -15.7568
upperneck -5.13341 -11.23 22.6541
head 1.61357 -5.50945 9.14363
rclavicle -1.35174e-014 -2.3059e-014
rhumerus 34.1603 2.95235 -73.8755
rradius 136.659
rwrist -30.3041
rhand 27.684 2.95202
rfingers 7.12502
rthumb 51.6132 -17.3806
lclavicle -1.35174e-014 -2.3059e-014
lhumerus 24.1346 -19.7314 71.1786
lradius 114.94
lwrist 13.1195
lhand -5.46539 30.9934
lfingers 7.12502
lthumb 20.3462 59.9476
rfemur -27.9323 5.79022 17.314
rtibia 51.7994
rfoot -16.1461 -10.7181
rtoes -18.4043
lfemur -28.6305 -7.05365 -13.4844
ltibia 50.0516
lfoot -14.0263 1.45079
ltoes -16.7831
